<svg xmlns="http://www.w3.org/2000/svg" viewBox="0 0 238 156.33"><defs><style>.cls-1{fill:none;stroke:#fff;stroke-miterlimit:10;stroke-width:2px;opacity:0.54;}</style></defs><g id="Layer_2" data-name="Layer 2"><g id="Layer_1-2" data-name="Layer 1"><line class="cls-1" x1="1" y1="122.14" x2="1" y2="42"/><line class="cls-1" x1="16" y1="19.54" x2="16" y2="135.8"/><line class="cls-1" x1="30" x2="30" y2="150.46"/><line class="cls-1" x1="46" y1="42.01" x2="46" y2="116.26"/><line class="cls-1" x1="61" y1="60.58" x2="61" y2="99.66"/><line class="cls-1" x1="78" y1="42.01" x2="78" y2="122.13"/><line class="cls-1" x1="96" y1="16.61" x2="96" y2="135.8"/><line class="cls-1" x1="110.5" y1="154.37" x2="111"/><line class="cls-1" x1="127" y1="124.09" x2="127" y2="43.96"/><line class="cls-1" x1="142" y1="21.5" x2="142" y2="137.76"/><line class="cls-1" x1="156" y1="1.96" x2="156" y2="152.41"/><line class="cls-1" x1="172" y1="43.97" x2="172" y2="118.22"/><line class="cls-1" x1="187" y1="62.53" x2="187" y2="101.61"/><line class="cls-1" x1="204" y1="43.97" x2="204" y2="124.08"/><line class="cls-1" x1="222" y1="18.57" x2="222" y2="137.76"/><line class="cls-1" x1="236.5" y1="156.32" x2="237" y2="1.96"/></g></g></svg>