<svg xmlns="http://www.w3.org/2000/svg" viewBox="0 0 46.51 43.45"><defs><style>.cls-1{fill:#c51d36;}</style></defs><g id="Layer_2" data-name="Layer 2"><g id="Layer_1-2" data-name="Layer 1"><path class="cls-1" d="M9.77,22.93,28.54,9.26l8.2,11.26L18,34.19ZM28.19.89a4.65,4.65,0,0,1,6.49,1L38.1,6.6a3.49,3.49,0,1,0,4.1,5.64l3.42,4.69a4.65,4.65,0,0,1-1,6.49L18.32,42.56a4.65,4.65,0,0,1-6.49-1l-3.42-4.7a3.48,3.48,0,0,0-4.1-5.63L.89,26.52a4.65,4.65,0,0,1,1-6.49ZM16.09,35.56a2.33,2.33,0,0,0,3.25.51L38.11,22.4a2.32,2.32,0,0,0,.51-3.25L30.42,7.89a2.32,2.32,0,0,0-3.25-.51L8.4,21.05a2.31,2.31,0,0,0-.51,3.24Z"/></g></g></svg>